<svg width="0" height="0" class="hidden"><symbol fill="none" xmlns="http://www.w3.org/2000/svg" viewBox="0 0 24 24" id="letter"><path d="M7.29 4.907a54.396 54.396 0 019.42 0l1.511.132a2.888 2.888 0 012.313 1.545.235.235 0 01-.091.307l-6.266 3.88a4.25 4.25 0 01-4.4.045L3.47 7.088a.236.236 0 01-.103-.293A2.889 2.889 0 015.78 5.039l1.51-.132z" fill="currentColor"/><path d="M3.362 8.767a.248.248 0 00-.373.187 30.352 30.352 0 00.184 7.56A2.888 2.888 0 005.78 18.96l1.51.131c3.135.273 6.287.273 9.422 0l1.51-.131a2.888 2.888 0 002.606-2.448 30.35 30.35 0 00.161-7.779.247.247 0 00-.377-.183l-5.645 3.495a5.75 5.75 0 01-5.951.06l-5.653-3.34z" fill="currentColor"/></symbol><symbol fill="none" xmlns="http://www.w3.org/2000/svg" viewBox="0 0 30 30" id="burger"><path d="M6.25 8.75h17.5M6.25 15h12.5m-12.5 6.25h7.5" stroke="#372E11" stroke-width="2" stroke-linecap="round"/></symbol></svg>